<svg width="22" height="22" viewBox="0 0 22 22" fill="none" xmlns="http://www.w3.org/2000/svg">
<path d="M10.8125 11.1875C9.39453 11.1875 8.18066 10.6826 7.1709 9.67285C6.16113 8.66309 5.65625 7.44922 5.65625 6.03125C5.65625 4.61328 6.16113 3.39941 7.1709 2.38965C8.18066 1.37988 9.39453 0.875 10.8125 0.875C12.2305 0.875 13.4443 1.37988 14.4541 2.38965C15.4639 3.39941 15.9688 4.61328 15.9688 6.03125C15.9688 7.44922 15.4639 8.66309 14.4541 9.67285C13.4443 10.6826 12.2305 11.1875 10.8125 11.1875ZM3.5 21.5C1.84315 21.5 0.5 20.1569 0.5 18.5V17.8906C0.5 17.1602 0.688203 16.4886 1.06461 15.8758C1.44016 15.2639 1.93945 14.7969 2.5625 14.4746C3.89453 13.8086 5.24805 13.3089 6.62305 12.9754C7.99805 12.6429 9.39453 12.4766 10.8125 12.4766C12.2305 12.4766 13.627 12.6429 15.002 12.9754C16.377 13.3089 17.7305 13.8086 19.0625 14.4746C19.6855 14.7969 20.1848 15.2639 20.5604 15.8758C20.9368 16.4886 21.125 17.1602 21.125 17.8906V18.5C21.125 20.1569 19.7819 21.5 18.125 21.5H3.5Z" fill="#E0E0E0"/>
</svg>
