<svg width="24" height="24" viewBox="0 0 24 24" fill="none" xmlns="http://www.w3.org/2000/svg">
<path d="M3.35986 21.8448C3.84683 19.8918 4.96232 18.1531 6.53454 16.8964C8.10677 15.6397 10.0485 14.9346 12.0608 14.8899C14.0731 14.8452 16.0443 15.4632 17.6708 16.6488C19.2973 17.8344 20.489 19.5218 21.0623 21.4512" stroke="#155A03" stroke-width="2.5" stroke-linecap="round" stroke-linejoin="round"/>
<path d="M12.6525 11.0448H11.7645C10.6519 11.0448 9.58483 10.6028 8.79808 9.81606C8.01133 9.02931 7.56934 7.96224 7.56934 6.8496V6.46561C7.56934 5.26004 8.04825 4.10383 8.90071 3.25136C9.75318 2.3989 10.9094 1.92 12.1149 1.92C12.7373 1.91936 13.3536 2.04149 13.9287 2.27935C14.5038 2.51721 15.0263 2.86615 15.4663 3.30621C15.9064 3.74626 16.2553 4.26878 16.4932 4.84385C16.7311 5.41893 16.8532 6.03526 16.8525 6.65759V6.8496C16.8525 7.96224 16.4105 9.02931 15.6238 9.81606C14.837 10.6028 13.77 11.0448 12.6573 11.0448H12.6525Z" stroke="#155A03" stroke-width="2.5" stroke-linecap="round" stroke-linejoin="round"/>
</svg>
